# xmcd
#
# Track frame offsets:
#	150
#	20410
#	35849
#	54196
#	76433
#	91247
#	106677
#	122802
#	144152
#	163159
#	185160
#	207271
#	227410
#	242547
#	255771
#	271600
#	285023
#	301701
#
# Disc length: 4215 seconds
#
# Revision: 1
# Processed by: cddbd v1.5.2PL0 Copyright (c) Steve Scherf et al.
# Submitted via: audiograbber 1.83.01
#
DISCID=d6107512
DTITLE=Various Artist - 36 Blues Classics - Disc 2
DYEAR=2008
DGENRE=Blues
TTITLE0=B.B.King - Mean ole' World
TTITLE1=Floyd Dixon - Hey, Bartender
TTITLE2=Johnnie Johnson And The Kentucky Headhunters - That'll Work
TTITLE3=Albert Collins, Johnny Copeland And  Robert Cray - T Bone Shuffle
TTITLE4=Boz Scaggs - Don't Cry No More
TTITLE5=Keb' Mo' - She Just Wants To Dance
TTITLE6=Hanns Thessink - Bloodsucker Blues
TTITLE7=The Vaughn Brothers - Hard To Be
TTITLE8=John Hammond - Spider And The Fly
TTITLE9=Johnnie Johnson  - Tanqueray
TTITLE10=Jay McShann - Kansas City
TTITLE11=Dr. John - Basin Street Blues
TTITLE12=T-Bone Walker - Shufflin' The Blues
TTITLE13=Fleetwood Mac - I Believe My Time Ain't Long
TTITLE14=Midge Marsden - Move Up To The Country
TTITLE15=Hammond Gamble - Whistling The Blues In The Rain
TTITLE16=Tony Joe White - Polk Salad Annie
TTITLE17=Bonnie Raitt - Love Me Like A Man
EXTD=
EXTT0=
EXTT1=
EXTT2=
EXTT3=
EXTT4=
EXTT5=
EXTT6=
EXTT7=
EXTT8=
EXTT9=
EXTT10=
EXTT11=
EXTT12=
EXTT13=
EXTT14=
EXTT15=
EXTT16=
EXTT17=
PLAYORDER=
